<svg height="503pt" viewBox="0 -2 503.87 503" width="503pt" xmlns="http://www.w3.org/2000/svg"><path d="m397.238281 14.433594v362c0 5.519531-4.476562 10-10 10h-373.238281c-5.519531 0-10-4.480469-10-10v-362c0-5.519532 4.480469-10 10-10h373.238281c5.523438 0 10 4.480468 10 10zm0 0" fill="#d8d6d7"/><path d="m397.238281 14.433594v362c0 5.519531-4.476562 10-10 10h-343.238281c-5.519531 0-10-4.480469-10-10v-362c0-5.519532 4.480469-10 10-10h343.238281c5.523438 0 10 4.480468 10 10zm0 0" fill="#fff"/><path d="m397.238281 79.136719v297.296875c0 5.519531-4.476562 10-10 10h-373.238281c-5.519531 0-10-4.480469-10-10v-297.660156l1.820312.480468h389.601563zm0 0" fill="#1c868e"/><path d="m395.421875 79.253906h-361.421875v297.179688c0 5.519531 4.480469 10 10 10h343.238281c5.523438 0 10-4.480469 10-10v-297.296875zm0 0" fill="#40c4df"/><path d="m499.878906 414.15625c0 40.359375-29.179687 73.917969-67.597656 80.699219-4.660156.820312-9.460938 1.257812-14.359375 1.257812-45.28125 0-81.960937-36.699219-81.960937-81.957031 0-45.261719 36.679687-81.960938 81.960937-81.960938 4.898437 0 9.699219.441407 14.359375 1.257813 38.417969 6.78125 67.597656 40.34375 67.597656 80.703125zm0 0" fill="#d8d6d7"/><path d="m499.878906 414.15625c0-44.570312-30.265625-80.703125-67.597656-80.703125-37.335938 0-67.601562 36.132813-67.601562 80.703125 0 44.566406 30.265624 80.699219 67.601562 80.699219 37.332031 0 67.597656-36.132813 67.597656-80.699219zm0 0" fill="#fff"/><path d="m468.164062 399.898438h-36v-36c0-5.519532-4.476562-10-10-10h-8.5c-5.523437 0-10 4.480468-10 10v36h-36c-5.523437 0-10 4.480468-10 10v8.5c0 5.523437 4.476563 10 10 10h36v36c0 5.523437 4.476563 10 10 10h8.5c5.523438 0 10-4.476563 10-10v-36h36c5.523438 0 10-4.476563 10-10v-8.5c0-5.519532-4.476562-10-10-10zm0 0" fill="#40c4df"/><g fill="#491352"><path d="m401.238281 329.828125v-315.394531c0-7.71875-6.28125-14-14-14h-373.238281c-7.71875 0-14 6.28125-14 14v362c0 7.722656 6.28125 14 14 14h321.308594c-2.167969 7.539062-3.355469 15.488281-3.355469 23.714844 0 47.398437 38.5625 85.957031 85.957031 85.957031 47.398438 0 85.960938-38.558594 85.960938-85.957031 0-53.828126-49.292969-94.84375-102.632813-84.320313zm-393.238281-315.394531c0-3.304688 2.691406-6 6-6h373.238281c3.308594 0 6 2.695312 6 6v60.820312h-385.238281zm312.808594 215.734375v-69.457031h72.433594v69.457031zm72.429687 8v69.460937h-72.429687v-69.460937zm-72.429687-85.457031v-69.457032h72.433594v69.457032zm-240.371094 229.722656h-66.4375c-3.308594 0-6-2.691406-6-6v-60.804688h72.4375zm0-74.804688h-72.4375v-69.460937h72.4375zm0-77.460937h-72.4375v-69.457031h72.4375zm0-77.457031h-72.4375v-69.457032h72.4375zm77.457031 229.722656h-69.457031v-66.804688h69.457031zm0-74.804688h-69.457031v-69.460937h69.457031zm0-77.460937h-69.457031v-69.457031h69.457031zm0-77.457031h-69.457031v-69.457032h69.457031zm77.457031 229.722656h-69.457031v-66.804688h69.457031zm0-74.804688h-69.457031v-69.460937h69.457031zm0-77.460937h-69.457031v-69.457031h69.457031zm0-77.457031h-69.457031v-69.457032h69.457031zm77.457032 229.722656h-69.457032v-66.804688h69.457032zm0-74.804688h-69.457032v-69.460937h69.457032zm0-77.460937h-69.457032v-69.457031h69.457032zm0-77.457031h-69.457032v-69.457032h69.457032zm8 229.722656v-66.804688h72.433594v16.191406c-25.195313 7.5625-45.542969 26.394532-55.195313 50.617188h-17.238281zm97.105468 109.671875c-42.984374 0-77.957031-34.96875-77.957031-77.957031 0-42.984376 34.972657-77.957032 77.957031-77.957032 42.984376 0 77.957032 34.972656 77.957032 77.957032 0 42.988281-34.972656 77.957031-77.957032 77.957031zm0 0"/><path d="m468.164062 395.898438h-32v-32c0-7.71875-6.28125-14-14-14h-8.5c-7.71875 0-14 6.28125-14 14v32h-32c-7.71875 0-14 6.28125-14 14v8.5c0 7.71875 6.28125 14 14 14h32v32c0 7.71875 6.28125 14 14 14h8.5c7.71875 0 14-6.28125 14-14v-32h32c7.71875 0 14-6.28125 14-14v-8.5c0-7.71875-6.28125-14-14-14zm6 22.5c0 3.308593-2.691406 6-6 6h-36c-2.207031 0-4 1.792968-4 4v36c0 3.308593-2.691406 6-6 6h-8.5c-3.308593 0-6-2.691407-6-6v-36c0-2.207032-1.792968-4-4-4h-36c-3.308593 0-6-2.691407-6-6v-8.5c0-3.308594 2.691407-6 6-6h36c2.207032 0 4-1.792969 4-4v-36c0-3.308594 2.691407-6 6-6h8.5c3.308594 0 6 2.691406 6 6v36c0 2.207031 1.792969 4 4 4h36c3.308594 0 6 2.691406 6 6zm0 0"/></g></svg>