<?xml version="1.0" encoding="iso-8859-1"?>
<!-- Generator: Adobe Illustrator 19.0.0, SVG Export Plug-In . SVG Version: 6.00 Build 0)  -->
<svg version="1.1" id="Capa_1" xmlns="http://www.w3.org/2000/svg" xmlns:xlink="http://www.w3.org/1999/xlink" x="0px" y="0px"
	 viewBox="0 0 414 414" style="enable-background:new 0 0 414 414;" xml:space="preserve">
<path style="fill:#ED664C;" d="M360.6,117.1v242.6c0,24.3-19.7,44-44,44H97.4c-24.3,0-44-19.7-44-44V54.3c0-24.3,19.7-44,44-44
	h161.5v72.9c0,18.8,15.2,34,34,34h67.7V117.1z M298.9,212c0-50.8-41.1-91.9-91.9-91.9s-91.9,41.2-91.9,91.9s41.2,91.9,91.9,91.9
	S298.9,262.8,298.9,212z"/>
<path style="fill:#FDC75B;" d="M258.9,10.3l101.7,106.9h-67.7c-18.8,0-34-15.2-34-34L258.9,10.3L258.9,10.3z"/>
<circle style="fill:#ED664C;" cx="207" cy="212" r="91.9"/>
<path d="M266.1,3.2c-1.9-2-4.5-3.2-7.2-3.2H97.4C67.6,0,43,24.5,43,54.3v305.4c0,29.8,24.6,54.3,54.4,54.3h219.2
	c29.8,0,54.4-24.5,54.4-54.3V117.2c0-2.6-1.2-5.1-2.9-7L266.1,3.2z M269,35.3l68.3,71.7h-44.4c-13.2,0-23.9-10.6-23.9-23.8V35.3z
	 M316.6,394H97.4C78.7,394,63,378.5,63,359.7V54.3C63,35.6,78.6,20,97.4,20H249v63.2c0,24.3,19.6,43.8,43.9,43.8H351v232.7
	C351,378.5,335.4,394,316.6,394z"/>
<path d="M289.3,325H124.7c-5.5,0-10,4.5-10,10s4.5,10,10,10h164.7c5.5,0,10-4.5,10-10S294.9,325,289.3,325z"/>
<path d="M243,176c-3.9-3.9-10.2-3.9-14.1,0L207,197.9L185.2,176c-3.9-3.9-10.2-3.9-14.1,0c-3.9,3.9-3.9,10.2,0,14.1l21.8,21.8
	L171,233.8c-3.9,3.9-3.9,10.2,0,14.1c2,2,4.5,2.9,7.1,2.9s5.1-1,7.1-2.9l21.8-21.8l21.8,21.8c2,2,4.5,2.9,7.1,2.9s5.1-1,7.1-2.9
	c3.9-3.9,3.9-10.2,0-14.1L221.1,212l21.8-21.8C246.9,186.3,246.9,179.9,243,176z"/>
<path d="M207,110.1c-56.2,0-101.9,45.7-101.9,101.9S150.8,313.9,207,313.9S308.9,268.2,308.9,212S263.2,110.1,207,110.1z M207,293.9
	c-45.2,0-81.9-36.7-81.9-81.9s36.7-81.9,81.9-81.9s81.9,36.7,81.9,81.9S252.2,293.9,207,293.9z"/>
<g>
</g>
<g>
</g>
<g>
</g>
<g>
</g>
<g>
</g>
<g>
</g>
<g>
</g>
<g>
</g>
<g>
</g>
<g>
</g>
<g>
</g>
<g>
</g>
<g>
</g>
<g>
</g>
<g>
</g>
</svg>
