<?xml version="1.0"?>
<svg xmlns="http://www.w3.org/2000/svg" height="512px" viewBox="0 0 512 512" width="512px"><g><g id="Filled_outline" data-name="Filled outline"><path d="m488 272a128.035 128.035 0 0 1 -142.33 127.22c-44.78-4.87-83.14-33.55-101.69-73.05a125.2 125.2 0 0 1 -10.74-36.22 127.809 127.809 0 0 1 7.36-63.98c11.12-28.62 15.4-59.45 15.4-90.16v-7.81a104 104 0 0 1 109.03-103.882c32.22 1.51 60.16 18.15 78.05 42.68a108.8 108.8 0 0 1 20.92 64.14v7.68c0 29.87 4.71 59.7 15.48 87.56a126.922 126.922 0 0 1 8.52 45.822z" fill="#fae890" data-original="#FAE890"/><path d="m488 272a128.035 128.035 0 0 1 -142.33 127.22c-44.78-4.87-83.14-33.55-101.69-73.05 57.96-35.57 150.8-112.62 199.1-259.37a108.8 108.8 0 0 1 20.92 64.138v7.68c0 29.87 4.71 59.7 15.48 87.56a126.922 126.922 0 0 1 8.52 45.822z" fill="#f5df7b" data-original="#F5DF7B"/><path d="m480 496v-168a48 48 0 0 0 -48-48h-32a8 8 0 0 1 -8-8v-56h-64v56a8 8 0 0 1 -8 8h-32a48 48 0 0 0 -48 48v168" fill="#fec9a3" data-original="#FEC9A3"/><path d="m392 248.426v-32.426h-64v32.428a71.4 71.4 0 0 0 64 0z" fill="#feb784" data-original="#FEB784"/><path d="m480 328v168h-240v-168a48 48 0 0 1 48-48h32a8 8 0 0 0 8-8v-16l32 40 32-40v16a8 8 0 0 0 8 8h32a48 48 0 0 1 47.94 45.68c.036.768.06 1.538.06 2.32z" fill="#7eb457" data-original="#7EB457"/><path d="m480 362.068v133.932h-156.8c51.786-28.822 110.616-71.852 156.8-133.932z" fill="#77ad50" data-original="#77AD50"/><path d="m328 255.998-16 24 16 56 32-40z" fill="#88c25e" data-original="#88C25E"/><path d="m392 255.998-32 40 32 40 16-56z" fill="#88c25e" data-original="#88C25E"/><path d="m432 432v64h-144v-64a62.457 62.457 0 0 1 0-79.94l16-8.06h112l16 8.06a62.479 62.479 0 0 1 0 79.94z" fill="#3d4d63" data-original="#3D4D63" class=""/><path d="m432 432v64h-144v-13.19c47.55-21.32 107.25-56.01 155.6-109.46a62.35 62.35 0 0 1 -11.6 58.65z" fill="#374559" data-original="#374559" class=""/><path d="m432 144v24a72 72 0 0 1 -144 0v-8a230.609 230.609 0 0 0 49.71-38.21 230.9 230.9 0 0 0 37.61-50.17l7.77-13.98.91-1.64 1.01 4.03 5.29 21.16a112.727 112.727 0 0 0 41.7 62.81z" fill="#fec9a3" data-original="#FEC9A3"/><path d="m384 56 1.01 4.03c-.62-.81-1.26-1.61-1.92-2.39z" fill="#63d852" data-original="#63D852"/><path d="m432 144v24a72.027 72.027 0 0 1 -46.52 67.36 71.632 71.632 0 0 0 14.52-43.36v-85.48a112.676 112.676 0 0 0 32 37.48z" fill="#fec093" data-original="#FEC093"/><path d="m256 488h-232v-112h160l72 72z" fill="#374559" data-original="#374559" class=""/><path d="m80 312h32v64h-32z" fill="#d6d6d4" data-original="#D6D6D4"/><path d="m24 248h144v64h-144z" fill="#4db7e5" data-original="#4DB7E5"/><path d="m72 312h96v-64h-32z" fill="#48add9" data-original="#48ADD9"/><path d="m128 488h-104v-112h32l72 72z" fill="#3d4d63" data-original="#3D4D63" class=""/><path d="m80 312h32v24h-32z" fill="#c7c7c5" data-original="#C7C7C5"/><path d="m496 272a134.29 134.29 0 0 0 -9.094-48.715c-9.891-25.685-14.906-54.165-14.906-84.645v-7.68a116.493 116.493 0 0 0 -30.609-78.852c-20.011-21.859-46.991-34.651-75.976-36.019a112.024 112.024 0 0 0 -117.415 111.911v7.84c0 32.581-4.985 61.941-14.811 87.247a136.072 136.072 0 0 0 -7.917 67.9 129.67 129.67 0 0 0 7.362 28.724 56.422 56.422 0 0 0 -.634 8.289v84.686l-42.343-42.343a8 8 0 0 0 -5.657-2.343h-64v-48h48a8 8 0 0 0 8-8v-64a8 8 0 0 0 -8-8h-144a8 8 0 0 0 -8 8v64a8 8 0 0 0 8 8h48v48h-48a8 8 0 0 0 -8 8v112a8 8 0 0 0 8 8h232a8 8 0 0 0 8-8v-40a8 8 0 0 0 -2.343-5.657l-13.657-13.657v-100.686a41.169 41.169 0 0 1 .737-7.616 39.984 39.984 0 0 1 39.263-32.384v52.4a70.572 70.572 0 0 0 -8 94.4v61.2h16v-64a8 8 0 0 0 -1.854-5.121 54.552 54.552 0 0 1 4.862-74.879h121.984a54.552 54.552 0 0 1 4.862 74.879 8 8 0 0 0 -1.854 5.121v64h16v-61.2a70.572 70.572 0 0 0 -8-94.4v-52.4a40.083 40.083 0 0 1 39.26 32.287 41.648 41.648 0 0 1 .74 7.713v168h16v-168a57 57 0 0 0 -.634-8.358 134.128 134.128 0 0 0 8.634-47.642zm-464-16h128v48h-128zm56 64h16v48h-16zm-56 160v-96h20.686l67.314 67.313v28.687zm216 0h-112v-32a8 8 0 0 0 -2.343-5.657l-58.343-58.343h105.373l67.313 67.313zm57.965-192 13.715 48h-15.68v-48zm7.252-134.768a11.99 11.99 0 1 0 18.274-14.592 238.943 238.943 0 0 0 49.658-61.06l1.389 5.555a121.05 121.05 0 0 0 41.462 64.779v20.086a64 64 0 0 1 -128 0v-3.41c5.919-3.537 11.651-7.342 17.217-11.358zm36.538 142.768-18.32 22.9-10.727-37.541 7.879-11.818zm41.658-26.459 7.879 11.818-10.727 37.541-18.32-22.9zm-31.413-21.541a79.71 79.71 0 0 0 24-3.683v8.876l-24 30-24-30v-8.876a79.71 79.71 0 0 0 24 3.683zm0 60.807 21.755 27.193h-43.51zm56 27.193h-15.68l13.715-48h1.965zm16-64h-19.719l-12.281-18.422v-16.341a80.026 80.026 0 0 0 40-69.237v-24a8 8 0 0 0 -3.2-6.4 104.972 104.972 0 0 1 -38.74-58.346l-6.3-25.194a8 8 0 0 0 -14.754-1.946l-8.676 15.619a222.993 222.993 0 0 1 -84.3 85.321 8 8 0 0 0 -4.03 6.946v8a80.026 80.026 0 0 0 40 69.237v16.341l-12.281 18.422h-19.719a56.048 56.048 0 0 0 -45.728 23.679q-.682-3.417-1.146-6.848a118.423 118.423 0 0 1 6.974-59.931c10.55-27.182 15.9-58.491 15.9-93.06v-7.84a96.024 96.024 0 0 1 100.663-95.929 93.679 93.679 0 0 1 64.926 30.841 100.524 100.524 0 0 1 26.411 68.048v7.68c0 32.453 5.375 62.867 15.981 90.412a118.363 118.363 0 0 1 8.019 42.948 120.066 120.066 0 0 1 -2.331 23.632 56.1 56.1 0 0 0 -45.669-23.632z" data-original="#000000" class="active-path" style="fill:#000000"/><path d="m396 160a12 12 0 1 0 -12-12 12.013 12.013 0 0 0 12 12z" data-original="#000000" class="active-path" style="fill:#000000"/><path d="m386.706 195.021-5.412-15.057a68.363 68.363 0 0 1 -23.183 4.036h-14.111v16h14.111a84.318 84.318 0 0 0 28.595-4.979z" data-original="#000000" class="active-path" style="fill:#000000"/><path d="m128 272h16v16h-16z" data-original="#000000" class="active-path" style="fill:#000000"/><path d="m96 272h16v16h-16z" data-original="#000000" class="active-path" style="fill:#000000"/><path d="m64 272h16v16h-16z" data-original="#000000" class="active-path" style="fill:#000000"/><path d="m160 400h16v16h-16z" data-original="#000000" class="active-path" style="fill:#000000"/><path d="m128 400h16v16h-16z" data-original="#000000" class="active-path" style="fill:#000000"/><path d="m183.998 432h16v16h-16z" data-original="#000000" class="active-path" style="fill:#000000"/><path d="m151.998 432h16v16h-16z" data-original="#000000" class="active-path" style="fill:#000000"/></g><script xmlns=""/></g> </svg>
