<?xml version="1.0"?>
<svg xmlns="http://www.w3.org/2000/svg" viewBox="0 0 64 64" width="512px" height="512px" class=""><g><g id="information-counter-nurse-data-reception"><path d="M61,52H60V49a5,5,0,0,0-3.29-4.68A4.962,4.962,0,0,0,58,41V37.16l1.95-5.84a1,1,0,0,0-.14-.9A.983.983,0,0,0,59,30H45a.983.983,0,0,0-.81.42,1,1,0,0,0-.14.9L46,37.16V41a4.962,4.962,0,0,0,1.29,3.32A5,5,0,0,0,44,49v3H36V50h2a3.009,3.009,0,0,0,3-3V41a3.009,3.009,0,0,0-3-3H26a3.009,3.009,0,0,0-3,3v6a3.009,3.009,0,0,0,3,3h2v2H20V49a5,5,0,0,0-3.29-4.68A4.962,4.962,0,0,0,18,41V37.16l1.95-5.84a1,1,0,0,0-.14-.9A.983.983,0,0,0,19,30H5a.983.983,0,0,0-.81.42,1,1,0,0,0-.14.9L6,37.16V41a4.962,4.962,0,0,0,1.29,3.32A5,5,0,0,0,4,49v3H3a1,1,0,0,0-1,1v4a1,1,0,0,0,1,1H5v3a1,1,0,0,0,1,1H58a1,1,0,0,0,1-1V58h2a1,1,0,0,0,1-1V53A1,1,0,0,0,61,52ZM46.39,32H57.61l-1.28,3.85-2.96-.6a7.019,7.019,0,0,0-2.74,0l-2.96.6ZM56,37.82V41a3.009,3.009,0,0,1-3,3H51a3.009,3.009,0,0,1-3-3V37.82l3.02-.6a4.974,4.974,0,0,1,1.96,0ZM46,49a3.009,3.009,0,0,1,3-3h2v4h2V46h2a3.009,3.009,0,0,1,3,3v3H46ZM26,48a1,1,0,0,1-1-1V41a1,1,0,0,1,1-1H38a1,1,0,0,1,1,1v6a1,1,0,0,1-1,1Zm8,2v2H30V50ZM6.39,32H17.61l-1.28,3.85-2.96-.6a7.019,7.019,0,0,0-2.74,0l-2.96.6ZM16,37.82V41a3.009,3.009,0,0,1-3,3H11a3.009,3.009,0,0,1-3-3V37.82l3.02-.6a4.974,4.974,0,0,1,1.96,0ZM6,49a3.009,3.009,0,0,1,3-3h2v4h2V46h2a3.009,3.009,0,0,1,3,3v3H6ZM57,60H7V58H57Zm3-4H4V54H60Z" data-original="#000000" class="active-path" data-old_color="#000000" fill="#5D9B9B"/><path d="M32,6A14,14,0,1,0,46,20,14.015,14.015,0,0,0,32,6Zm0,26A12,12,0,1,1,44,20,12.01,12.01,0,0,1,32,32Z" data-original="#000000" class="active-path" data-old_color="#000000" fill="#5D9B9B"/><path d="M41,16H36V11a1,1,0,0,0-1-1H29a1,1,0,0,0-1,1v5H23a1,1,0,0,0-1,1v6a1,1,0,0,0,1,1h5v5a1,1,0,0,0,1,1h6a1,1,0,0,0,1-1V24h5a1,1,0,0,0,1-1V17A1,1,0,0,0,41,16Zm-1,6H35a1,1,0,0,0-1,1v5H30V23a1,1,0,0,0-1-1H24V18h5a1,1,0,0,0,1-1V12h4v5a1,1,0,0,0,1,1h5Z" data-original="#000000" class="active-path" data-old_color="#000000" fill="#5D9B9B"/><path d="M61,2H3A1,1,0,0,0,2,3V27H4V4H60V27h2V3A1,1,0,0,0,61,2Z" data-original="#000000" class="active-path" data-old_color="#000000" fill="#5D9B9B"/></g><script xmlns="" class="active-path" style=""/></g> </svg>
