<svg id="Capa_1" enable-background="new 0 0 512 512" height="512" viewBox="0 0 512 512" width="512" xmlns="http://www.w3.org/2000/svg"><path d="m457.886 106.146v-62.439c0-5.747-4.659-10.407-10.406-10.407h-212.293c-5.747 0-10.407 4.659-10.407 10.407v62.439h-187.421c-5.69 0-10.302 4.612-10.302 10.302v260.267h457.886v-260.267c0-5.69-4.612-10.302-10.302-10.302z" fill="#bebebe"/><path d="m391.285 256.936v82.421c0 5.69 4.612 10.302 10.302 10.302h14.779c5.69 0 10.302-4.612 10.302-10.302v-82.421c0-5.69-4.612-10.302-10.302-10.302h-14.779c-5.69 0-10.302 4.612-10.302 10.302z" fill="#fb636f"/><g fill="#595959"><path d="m256 204.374v-15.382c0-5.523 4.477-10 10-10h15.382c5.523 0 10 4.477 10 10v15.382c0 5.523-4.477 10-10 10h-15.382c-5.523 0-10-4.477-10-10z"/><path d="m323.642 204.374v-15.382c0-5.523 4.477-10 10-10h15.382c5.523 0 10 4.477 10 10v15.382c0 5.523-4.477 10-10 10h-15.382c-5.523 0-10-4.477-10-10z"/><path d="m391.285 204.374v-15.382c0-5.523 4.477-10 10-10h15.382c5.523 0 10 4.477 10 10v15.382c0 5.523-4.477 10-10 10h-15.382c-5.523 0-10-4.477-10-10z"/><path d="m256 272.016v-15.382c0-5.523 4.477-10 10-10h15.382c5.523 0 10 4.477 10 10v15.382c0 5.523-4.477 10-10 10h-15.382c-5.523 0-10-4.477-10-10z"/><path d="m323.642 272.016v-15.382c0-5.523 4.477-10 10-10h15.382c5.523 0 10 4.477 10 10v15.382c0 5.523-4.477 10-10 10h-15.382c-5.523 0-10-4.477-10-10z"/><path d="m256 339.659v-15.382c0-5.523 4.477-10 10-10h15.382c5.523 0 10 4.477 10 10v15.382c0 5.523-4.477 10-10 10h-15.382c-5.523 0-10-4.478-10-10z"/><path d="m323.642 339.659v-15.382c0-5.523 4.477-10 10-10h15.382c5.523 0 10 4.477 10 10v15.382c0 5.523-4.477 10-10 10h-15.382c-5.523 0-10-4.478-10-10z"/></g><path d="m58.276 214.479v-66.811c0-5.69 4.612-10.302 10.302-10.302h112.6c5.69 0 10.302 4.612 10.302 10.302v66.811c0 5.69-4.612 10.302-10.302 10.302h-112.6c-5.689-.001-10.302-4.613-10.302-10.302z" fill="#434343"/><path d="m457.886 106.146v233.106c0 5.747-4.659 10.406-10.406 10.406h-420.423v27.057h457.886v-260.267c0-5.69-4.612-10.302-10.302-10.302z" fill="#9b9b9b"/><path d="m502 480.78h-492c-5.523 0-10-4.477-10-10v-84.065c0-5.523 4.477-10 10-10h492c5.523 0 10 4.477 10 10v84.065c0 5.523-4.477 10-10 10z" fill="#595959"/><path d="m484.943 376.715v104.065h16.755c5.69 0 10.302-4.612 10.302-10.302v-83.461c0-5.69-4.612-10.302-10.302-10.302z" fill="#434343"/><circle cx="256" cy="428.748" fill="#bebebe" r="20.813"/><path d="m256 141.935v-67.415c0-5.523 4.477-10 10-10h150.667c5.523 0 10 4.477 10 10v67.415c0 5.523-4.477 10-10 10h-150.667c-5.523 0-10-4.477-10-10z" fill="#51be26"/><path d="m403.772 64.52v87.415h12.592c5.69 0 10.302-4.612 10.302-10.302v-66.811c0-5.69-4.612-10.302-10.302-10.302z" fill="#49a61f"/><path d="m85.333 193.561v-152.04c0-5.69 4.612-10.302 10.302-10.302h58.486c5.69 0 10.302 4.612 10.302 10.302v152.04z" fill="#eaeaea"/><path d="m217.054 145.092c4.268 0 7.726-3.459 7.726-7.726v-31.219h-15.453v31.219c.001 4.267 3.459 7.726 7.727 7.726z" fill="#9b9b9b"/><path d="m137.366 66.003h-24.976c-4.268 0-7.726-3.459-7.726-7.726s3.459-7.726 7.726-7.726h24.976c4.268 0 7.726 3.459 7.726 7.726s-3.458 7.726-7.726 7.726z" fill="#bebebe"/><path d="m137.366 97.222h-24.976c-4.268 0-7.726-3.459-7.726-7.726s3.459-7.726 7.726-7.726h24.976c4.268 0 7.726 3.459 7.726 7.726.001 4.267-3.458 7.726-7.726 7.726z" fill="#bebebe"/><path d="m137.366 128.442h-24.976c-4.268 0-7.726-3.459-7.726-7.726s3.459-7.726 7.726-7.726h24.976c4.268 0 7.726 3.459 7.726 7.726.001 4.266-3.458 7.726-7.726 7.726z" fill="#bebebe"/><path d="m137.366 159.661h-24.976c-4.268 0-7.726-3.459-7.726-7.726s3.459-7.726 7.726-7.726h24.976c4.268 0 7.726 3.459 7.726 7.726.001 4.267-3.458 7.726-7.726 7.726z" fill="#bebebe"/><path d="m164.423 201.287h-79.09c-4.268 0-7.726-3.459-7.726-7.726s3.459-7.726 7.726-7.726h79.089c4.268 0 7.726 3.459 7.726 7.726s-3.458 7.726-7.725 7.726z" fill="#595959"/></svg>