<svg height="512" viewBox="0 0 64 64" width="512" xmlns="http://www.w3.org/2000/svg"><g id="money-computer-laptop-smartphone-briefcase"><path d="m61 11v2a2.006 2.006 0 0 1 -2 2h-14a2.006 2.006 0 0 1 -2-2v-2z" fill="#ff7956"/><path d="m61 5v6h-18v-6a2.006 2.006 0 0 1 2-2h14a2.006 2.006 0 0 1 2 2z" fill="#46f8ff"/><path d="m61 11v2a2.006 2.006 0 0 1 -2 2h-4a2.006 2.006 0 0 0 2-2v-2z" fill="#ff5023"/><path d="m61 5v6h-4v-6a2.006 2.006 0 0 0 -2-2h4a2.006 2.006 0 0 1 2 2z" fill="#00b6bd"/><path d="m50 15h4v4h-4z" fill="#fee9ab"/><path d="m52 15h2v4h-2z" fill="#ffd422"/><circle cx="32" cy="32" fill="#ffcd00" r="14"/><path d="m46 32a14 14 0 0 1 -14 14 14.6 14.6 0 0 1 -2-.14 14 14 0 0 0 0-27.72 14.6 14.6 0 0 1 2-.14 14 14 0 0 1 14 14z" fill="#ddb200"/><path d="m3 11h16v6h-16z" fill="#c0ab91"/><path d="m3 7h16v4h-16z" fill="#957856"/><path d="m16 11h3v6h-3z" fill="#b39a7c"/><path d="m16 7h3v4h-3z" fill="#6a563d"/><path d="m61 57v2a2.006 2.006 0 0 1 -2 2h-14a2.006 2.006 0 0 1 -2-2v-2z" fill="#ff7956"/><path d="m60 49v8h-16v-8a2.006 2.006 0 0 1 2-2h12a2.006 2.006 0 0 1 2 2z" fill="#46f8ff"/><path d="m61 57v2a2.006 2.006 0 0 1 -2 2h-4a2.006 2.006 0 0 0 2-2v-2z" fill="#ff5023"/><path d="m60 49v8h-4v-8a2.006 2.006 0 0 0 -2-2h4a2.006 2.006 0 0 1 2 2z" fill="#00b6bd"/><rect fill="#46f8ff" height="16" rx="2" width="12" x="3" y="45"/><path d="m15 47v12a2.006 2.006 0 0 1 -2 2h-5a2.006 2.006 0 0 0 2-2v-12a2.006 2.006 0 0 0 -2-2h5a2.006 2.006 0 0 1 2 2z" fill="#00b6bd"/><rect fill="#57a4ff" height="12" rx="2" width="8" x="11" y="49"/><path d="m19 51v8a2.006 2.006 0 0 1 -2 2h-4a2.006 2.006 0 0 0 2-2v-8a2.006 2.006 0 0 0 -2-2h4a2.006 2.006 0 0 1 2 2z" fill="#006df0"/><path d="m47 32a15 15 0 1 0 -15 15 15.017 15.017 0 0 0 15-15zm-28 0a13 13 0 1 1 13 13 13.015 13.015 0 0 1 -13-13z"/><path d="m59 2h-14a3.009 3.009 0 0 0 -3 3v8a3.009 3.009 0 0 0 3 3h4v2h-2v2h10v-2h-2v-2h4a3.009 3.009 0 0 0 3-3v-8a3.009 3.009 0 0 0 -3-3zm-6 16h-2v-2h2zm7-5a1 1 0 0 1 -1 1h-14a1 1 0 0 1 -1-1v-1h16zm0-3h-16v-5a1 1 0 0 1 1-1h14a1 1 0 0 1 1 1z"/><path d="m17 48h-1v-1a3.009 3.009 0 0 0 -3-3h-8a3.009 3.009 0 0 0 -3 3v12a3.009 3.009 0 0 0 3 3h12a3.009 3.009 0 0 0 3-3v-8a3.009 3.009 0 0 0 -3-3zm-6.82 12h-5.18a1 1 0 0 1 -1-1v-12a1 1 0 0 1 1-1h8a1 1 0 0 1 1 1v1h-1a3.009 3.009 0 0 0 -3 3v8a3 3 0 0 0 .18 1zm7.82-1a1 1 0 0 1 -1 1h-4a1 1 0 0 1 -1-1v-8a1 1 0 0 1 1-1h4a1 1 0 0 1 1 1z"/><path d="m61 56v-7a3.009 3.009 0 0 0 -3-3h-12a3.009 3.009 0 0 0 -3 3v7a1 1 0 0 0 -1 1v2a3.009 3.009 0 0 0 3 3h14a3.009 3.009 0 0 0 3-3v-2a1 1 0 0 0 -1-1zm-16-7a1 1 0 0 1 1-1h12a1 1 0 0 1 1 1v7h-14zm15 10a1 1 0 0 1 -1 1h-14a1 1 0 0 1 -1-1v-1h16z"/><path d="m33 41v-2.142a3.992 3.992 0 0 0 -1-7.858 2 2 0 1 1 2-2h2a4 4 0 0 0 -3-3.858v-2.142h-2v2.142a3.992 3.992 0 0 0 1 7.858 2 2 0 1 1 -2 2h-2a4 4 0 0 0 3 3.858v2.142z"/><path d="m19 6h-3v-3a1 1 0 0 0 -1-1h-8a1 1 0 0 0 -1 1v3h-3a1 1 0 0 0 -1 1v10a1 1 0 0 0 1 1h16a1 1 0 0 0 1-1v-10a1 1 0 0 0 -1-1zm-11-2h6v2h-6zm10 12h-14v-4h2v1h2v-1h6v1h2v-1h2zm0-6h-14v-2h14z"/><path d="m33.293 11.293 1.414 1.414 4-4a1 1 0 0 0 0-1.414l-4-4-1.414 1.414 2.293 2.293h-11.586v2h11.586z"/><path d="m56 25v11.586l-2.293-2.293-1.414 1.414 4 4a1 1 0 0 0 1.414 0l4-4-1.414-1.414-2.293 2.293v-11.586z"/><path d="m8 39v-11.586l2.293 2.293 1.414-1.414-4-4a1 1 0 0 0 -1.414 0l-4 4 1.414 1.414 2.293-2.293v11.586z"/><path d="m28.707 52.707-1.414-1.414-4 4a1 1 0 0 0 0 1.414l4 4 1.414-1.414-2.293-2.293h11.586v-2h-11.586z"/><path d="m24.222 24.222a11.012 11.012 0 0 0 0 15.556l1.414-1.414a9.01 9.01 0 0 1 0-12.728z"/><path d="m39.778 39.778a11.012 11.012 0 0 0 0-15.556l-1.414 1.414a9.01 9.01 0 0 1 0 12.728z"/></g></svg>