<?xml version="1.0"?>
<svg xmlns="http://www.w3.org/2000/svg" id="Layer_5" enable-background="new 0 0 64 64" height="512px" viewBox="0 0 64 64" width="512px"><g><g><g><g><path d="m21 17c0 .83.34 1.58.88 2.12s1.29.88 2.12.88h1.29c.54 1.83 1.81 3.34 3.47 4.21l-.76 2.79-1.72.24-2.16.31c-2.02.29-3.9 1.23-5.35 2.68-.89.89-1.58 1.93-2.05 3.07s-.72 2.36-.72 3.62v5.08h-6c-4.42 0-8-3.58-8-8 0-4.09 3.06-7.45 7.01-7.94l-.01-.06c0-5.52 4.48-10 10-10 .72 0 1.43.08 2.1.22h.01c-.07.25-.11.51-.11.78z" fill="#e6e9ed" data-original="#E6E9ED"/></g><g><path d="m55 28c3.87 0 7 3.13 7 7 0 2.39-1.19 4.5-3.02 5.76-1.09.75-2.39 1.2-3.81 1.23-.06.01-.11.01-.17.01h-4.53-2.47v-5.08c0-2.51-1-4.92-2.77-6.69-1.45-1.45-3.33-2.39-5.35-2.68l-2.16-.31-1.72-.24-.76-2.79c.63-.33 1.21-.76 1.71-1.26.81-.81 1.43-1.82 1.76-2.95h1.29c.79 0 1.51-.31 2.04-.81.64-.12 1.29-.19 1.96-.19 5.21 0 9.49 3.99 9.95 9.09.35-.05.69-.09 1.05-.09z" fill="#e6e9ed" data-original="#E6E9ED"/></g><g><path d="m42 42h-.47-4.7-6.83-8-6v-5.08c0-1.26.25-2.48.72-3.62s1.16-2.18 2.05-3.07c1.45-1.45 3.33-2.39 5.35-2.68l2.16-.31v.01l1.72 7.75 4-4 4 4 1.72-7.75v-.01l2.16.31c2.02.29 3.9 1.23 5.35 2.68 1.77 1.77 2.77 4.18 2.77 6.69v5.08z" fill="#ff826e" data-original="#FF826E"/></g><g><path d="m36 27 1.72.24v.01l-1.72 7.75-4-4z" fill="#fc6e51" data-original="#FC6E51"/></g><g><path d="m28 27 4 4-4 4-1.72-7.75v-.01z" fill="#fc6e51" data-original="#FC6E51"/></g><g><path d="m38.97 5.98.79.4c1.99.99 3.24 3.02 3.24 5.24 0 .91-.21 1.8-.62 2.62l-.3.6c-.54-.52-1.27-.84-2.08-.84h-1c0-1.1-.9-2-2-2h-1.53c-2.94 0-5.84-.68-8.47-2-1.23.61-2 1.87-2 3.24v.76h-1c-.93 0-1.76.42-2.31 1.08l-.42-1.28c-.18-.53-.27-1.09-.27-1.64 0-1.38.55-2.71 1.52-3.68l.48-.48c0-1.66.67-3.16 1.76-4.24 1.08-1.09 2.58-1.76 4.24-1.76h6.51c1.93 0 3.49 1.56 3.49 3.49 0 .17-.01.33-.03.49z" fill="#656d78" data-original="#656D78"/></g><g><path d="m42.08 14.84c.57.54.92 1.31.92 2.16 0 .83-.34 1.58-.88 2.12-.03.03-.05.05-.08.07-.53.5-1.25.81-2.04.81h-1.29c.19-.63.29-1.3.29-2v-4h1c.81 0 1.54.32 2.08.84z" fill="#f0d0b4" data-original="#F0D0B4"/></g><g><path d="m28.76 24.21c.97.5 2.07.79 3.24.79s2.27-.29 3.24-.79l.76 2.79-4 4-4-4z" fill="#f0d0b4" data-original="#F0D0B4"/></g><g><path d="m35.24 24.21c-.97.5-2.07.79-3.24.79s-2.27-.29-3.24-.79c-1.66-.87-2.93-2.38-3.47-4.21-.19-.63-.29-1.3-.29-2v-4-.76c0-1.37.77-2.63 2-3.24 2.63 1.32 5.53 2 8.47 2h1.53c1.1 0 2 .9 2 2v4c0 .7-.1 1.37-.29 2-.33 1.13-.95 2.14-1.76 2.95-.5.5-1.08.93-1.71 1.26z" fill="#f0d0b4" data-original="#F0D0B4"/></g><g><path d="m25.29 20h-1.29c-.83 0-1.58-.34-2.12-.88s-.88-1.29-.88-2.12c0-.27.04-.53.11-.78.11-.43.31-.81.58-1.14.55-.66 1.38-1.08 2.31-1.08h1v4c0 .7.1 1.37.29 2z" fill="#f0d0b4" data-original="#F0D0B4"/></g><g><path d="m55.17 42c.53 1.22.83 2.58.83 4 0 5.52-4.48 10-10 10s-10-4.48-10-10c0-1.42.3-2.78.83-4h4.7c-.95 1.06-1.53 2.46-1.53 4 0 3.31 2.69 6 6 6s6-2.69 6-6c0-1.54-.58-2.94-1.53-4h4.53c.06 0 .11 0 .17-.01z" fill="#fcd770" data-original="#FCD770"/></g><g><path d="m62 43v6l-2.54.81c-.3 1.06-.72 2.07-1.24 3.02l1.22 2.36-4.25 4.24-2.36-1.21c-.95.52-1.96.94-3.02 1.24l-.81 2.54h-6l-.81-2.54c-1.06-.3-2.07-.72-3.02-1.24l-2.36 1.21-4.25-4.24 1.22-2.36c-.52-.95-.94-1.96-1.24-3.02l-2.54-.81v-7h6.83c-.53 1.22-.83 2.58-.83 4 0 5.52 4.48 10 10 10s10-4.48 10-10c0-1.42-.3-2.78-.83-4v-.01c1.42-.03 2.72-.48 3.81-1.23.18.46.34.94.48 1.43z" fill="#ffc729" data-original="#FFC729"/></g></g><g><path d="m34 18.764c-.381.762-1.147 1.236-2 1.236s-1.619-.474-2-1.236l-.105-.211-1.789.895.105.21c.722 1.445 2.174 2.342 3.789 2.342s3.067-.897 3.789-2.342l.105-.211-1.789-.895z" data-original="#000000" class="active-path" style="fill:#000000"/><path d="m60.161 41.103c1.734-1.469 2.839-3.658 2.839-6.103 0-4.473-3.694-8.101-8.185-7.998-.941-5.197-5.427-9.002-10.815-9.002-.048 0-.096.006-.144.007.085-.324.144-.657.144-1.007 0-.855-.275-1.645-.734-2.296l.011-.021c.473-.947.723-2.007.723-3.065 0-2.613-1.452-4.962-3.789-6.131l-.222-.111c-.06-2.422-2.04-4.376-4.476-4.376h-6.513c-3.717 0-6.766 2.911-6.987 6.573l-.195.195c-1.172 1.172-1.818 2.73-1.818 4.388 0 .668.106 1.328.318 1.962l.273.818c-.035.058-.065.118-.097.178-.495-.068-.993-.114-1.494-.114-5.803 0-10.558 4.519-10.961 10.222-4.022.898-7.039 4.489-7.039 8.778 0 4.962 4.037 9 9 9h19v6.729l2.734.876c.249.774.557 1.52.919 2.229l-1.312 2.549 5.274 5.274 2.549-1.312c.71.363 1.456.67 2.229.919l.878 2.736h7.459l.876-2.734c.773-.249 1.52-.556 2.229-.919l2.549 1.312 5.274-5.274-1.312-2.549c.362-.709.67-1.455.919-2.229l2.735-.878v-7.459l-2.734-.876c-.032-.098-.072-.194-.105-.291zm-7.203-12.926.096 1.056 1.049-.157c.342-.052.627-.076.897-.076 3.309 0 6 2.691 6 6s-2.691 6-6 6h-6v-4.082c0-2.794-1.088-5.421-3.063-7.396-1.589-1.589-3.69-2.64-5.916-2.958l-3.229-.461-.389-1.43c1.34-.887 2.396-2.166 3.008-3.673h.589c.926 0 1.768-.329 2.446-.858.512-.089 1.032-.142 1.554-.142 4.685 0 8.535 3.515 8.958 8.177zm2.042 17.823c0 4.962-4.037 9-9 9s-9-4.038-9-9c0-1.035.182-2.04.522-3h2.156c-.441.93-.678 1.951-.678 3 0 3.86 3.141 7 7 7s7-3.14 7-7c0-1.048-.237-2.07-.678-3h2.156c.34.96.522 1.965.522 3zm-34-11v6h-4v-4.082c0-2.26.88-4.384 2.478-5.981 1.285-1.285 2.985-2.135 4.785-2.393l1.239-.177 1.917 8.628 4.581-4.581 4.581 4.581 1.917-8.628 1.239.177c1.8.257 3.5 1.107 4.785 2.393 1.598 1.597 2.478 3.721 2.478 5.981v4.082h-4v-6h-2v6h-18v-6zm15.354-6.939.159.023-1.094 4.922-2.005-2.006zm-4.354-4.061c-3.309 0-6-2.691-6-6v-4.764c0-.842.395-1.612 1.054-2.1 2.625 1.221 5.523 1.864 8.418 1.864h1.528c.552 0 1 .449 1 1v4c0 3.309-2.691 6-6 6zm0 2c.901 0 1.765-.157 2.574-.433l.309 1.136-2.883 2.883-2.883-2.883.309-1.136c.809.276 1.673.433 2.574.433zm-4.354 2.061 2.94 2.939-2.005 2.005-1.094-4.922zm22.328 14.939c.653.864 1.026 1.908 1.026 3 0 2.757-2.243 5-5 5s-5-2.243-5-5c0-1.093.373-2.136 1.026-3zm-9.974-25v-3c1.103 0 2 .897 2 2s-.897 2-2 2h-.069c.041-.328.069-.661.069-1zm-16.769-8.817.769-.769v-.414c0-2.757 2.243-5 5-5h6.513c1.371 0 2.487 1.116 2.487 2.487 0 1.072-.684 2.021-1.699 2.359l-.616.205.631 1.897.617-.205c1.184-.395 2.111-1.251 2.624-2.326 1.509.866 2.443 2.445 2.443 4.201 0 .599-.118 1.197-.335 1.756-.509-.234-1.069-.374-1.665-.374h-.184c-.414-1.161-1.514-2-2.816-2h-1.528c-2.771 0-5.546-.655-8.024-1.895l-.448-.223-.447.224c-1.503.751-2.453 2.23-2.537 3.894h-.016c-.648 0-1.252.17-1.794.445-.135-.417-.206-.85-.206-1.289 0-1.124.438-2.179 1.231-2.973zm.769 5.817v3c0 .339.028.672.069 1h-.069c-1.103 0-2-.897-2-2s.897-2 2-2zm-21 19c0-3.86 3.141-7 7-7 1.244 0 2.466.331 3.533.956l1.012-1.726c-1.357-.795-2.907-1.216-4.487-1.227.498-4.494 4.316-8.003 8.942-8.003.336 0 .672.021 1.006.059.032 2.178 1.808 3.941 3.994 3.941h.589c.612 1.507 1.668 2.786 3.008 3.673l-.389 1.43-3.229.461c-2.226.318-4.327 1.369-5.916 2.958-1.975 1.975-3.063 4.602-3.063 7.396v4.082h-5c-3.859 0-7-3.14-7-7zm58 14.271-2.356.755-.146.517c-.28.989-.668 1.929-1.152 2.796l-.263.468 1.13 2.195-3.212 3.211-2.195-1.129-.468.262c-.868.486-1.809.875-2.797 1.153l-.517.146-.753 2.355h-4.541l-.754-2.356-.517-.146c-.988-.279-1.929-.667-2.797-1.153l-.468-.262-2.195 1.129-3.212-3.211 1.13-2.195-.263-.468c-.484-.867-.872-1.807-1.152-2.796l-.146-.517-2.356-.754v-5.271h4.426c-.275.971-.426 1.973-.426 3 0 6.065 4.935 11 11 11s11-4.935 11-11c0-1.08-.162-2.134-.466-3.151.662-.129 1.291-.345 1.884-.626.024.079.058.156.08.235l.146.517 2.356.754z" data-original="#000000" class="active-path" style="fill:#000000"/></g></g><script xmlns=""/></g> </svg>
