<svg height="512" viewBox="0 0 64 64" width="512" xmlns="http://www.w3.org/2000/svg"><g id="shopping_&#xB7;_cart_&#xB7;_ecommerce_&#xB7;_add_&#xB7;_online" data-name="shopping  &#xB7; cart &#xB7; ecommerce &#xB7; add &#xB7; online"><path d="m54 56a1 1 0 0 1 -1 1h-38a5 5 0 0 1 -5-5 5 5 0 0 1 5-5h4v2h-4a3 3 0 0 0 -3 3 3 3 0 0 0 3 3h38a1 1 0 0 1 1 1z" fill="#6d6e71"/><path d="m16.46 23-1.27-12.01a2.2 2.2 0 0 0 -2.19-1.99h-8a2.011 2.011 0 0 0 -1.948 2.457 2.093 2.093 0 0 0 2.079 1.543h4.969a1.006 1.006 0 0 1 1 .89l3.7 33.331a2 2 0 0 0 1.99 1.779h35.56a1.994 1.994 0 0 0 1.96-1.62l4.09-22.015a2 2 0 0 0 -1.966-2.365z" fill="#4e901e"/><path d="m25.67 33h-8.23l-.59-6h8.15z" fill="#91dc5a"/><path d="m26.02 39h-7.995l.585 6h8 .39l-.667-6z" fill="#5eac24"/><path d="m26.333 39h8.667v-6h-9.333z" fill="#91dc5a"/><path d="m25 27 .667 6h9.333v-6z" fill="#a4e276"/><path d="m45 27-.67 6h8.67l1-6z" fill="#c9eeae"/><path d="m45 27-.67 6h-9.33v-6z" fill="#b6eb92"/><path d="m44.33 33-.66 6h-8.67v-6z" fill="#a4e276"/><path d="m53 33-1 6h-8.33l.66-6z" fill="#b6eb92"/><path d="m52 39-1 6h-8l.67-6z" fill="#a4e276"/><path d="m26.333 39-.666-6h-.227-8l.585 6h7.995z" fill="#7ed63e"/><path d="m35 39v6h8l.666-6z" fill="#91dc5a"/><path d="m26.333 39 .667 6h8v-6z" fill="#7ed63e"/><circle cx="44" cy="56" fill="#58595b" r="4"/><circle cx="24" cy="56" fill="#58595b" r="4"/><circle cx="51" cy="19" fill="#ed1c24" r="10"/><path d="m51 9a10.029 10.029 0 0 0 -1.5.125 9.986 9.986 0 0 1 0 19.75 9.995 9.995 0 1 0 1.5-19.875z" fill="#cf1820"/><path d="m50 20v5a1 1 0 0 0 2 0v-5h5a1 1 0 0 0 0-2h-5v-5a1 1 0 0 0 -2 0v5h-5a1 1 0 0 0 0 2z" fill="#f1f2f2"/></g></svg>