<?xml version="1.0"?>
<svg xmlns="http://www.w3.org/2000/svg" id="Layer_1" enable-background="new 0 0 512 512" height="512px" viewBox="0 0 512 512" width="512px"><g><path d="m208 224 48 154 48-154-20-15h-56z" fill="#edeff1" data-original="#EDEFF1"/><path d="m234 296c-1.185 0-2.317.218-3.372.598l7.917 25.402h34.909l7.918-25.402c-1.055-.38-2.188-.598-3.372-.598z" fill="#d3d3d3" data-original="#D3D3D3"/><path d="m284 209-28 28-28-28-20 15 4.175 13.396 21.76 32.413 18.757-26.683 3.308-1.654 3.308 1.654 18.757 26.683 21.76-32.413 4.175-13.396z" fill="#d3d3d3" data-original="#D3D3D3"/><path d="m264 271h-8-8l-3.976 68.578 11.976 38.422 11.976-38.422z" fill="#80d6fb" data-original="#80D6FB"/><path d="m245.043 322h21.914l-1.508-26h-18.898z" fill="#46bee8" data-original="#46BEE8"/><path d="m261.73 279.357h-2c0-8.797-2.708-9.357-2.735-9.357h-1.995c-.719.091-2.73 1.954-2.73 9.357h-2c0-11.02 4.243-11.355 4.726-11.357h2.004c.488.002 4.73.338 4.73 11.357z" fill="#46bee8" data-original="#46BEE8"/><path d="m256 271h8l10.81-12.776-12.81-18.224-6-3-6 3-12.811 18.224 10.811 12.776z" fill="#80d6fb" data-original="#80D6FB"/><path d="m259.362 265h-6.724c-2.942 0-5.734-1.295-7.634-3.541l-5.511-6.513-2.304 3.277 10.811 12.777h16l10.81-12.776-2.304-3.277-5.511 6.513c-1.899 2.245-4.692 3.54-7.633 3.54z" fill="#46bee8" data-original="#46BEE8"/><path d="m256 182h-28v27l28 28 28-28v-27z" fill="#ffd3b3" data-original="#FFD3B3"/><path d="m228 196c8.334 3.721 18.296 6 28 6s19.666-2.279 28-6v-15h-56z" fill="#fcb98b" data-original="#FCB98B"/><path d="m196 93h-6.95c-5.916 0-10.539 5.108-9.95 10.995l2 20c.511 5.112 4.813 9.005 9.95 9.005h4.95z" fill="#ffd3b3" data-original="#FFD3B3"/><path d="m316 93h6.95c5.916 0 10.539 5.108 9.95 10.995l-2 20c-.511 5.112-4.813 9.005-9.95 9.005h-4.95z" fill="#ffd3b3" data-original="#FFD3B3"/><path d="m364.017 243.339-60.017-19.339-48 154-48-154-47 15v268h95 134v-227.611c0-16.357-10.466-30.878-25.983-36.05z" fill="#6e83b7" data-original="#6E83B7"/><path d="m184.232 259.356 23.768-35.356 48 154-54.333-74.667 5.129-22.333z" fill="#859cc1" data-original="#859CC1"/><path d="m338 356h6v151h-6z" fill="#466089" data-original="#466089"/><path d="m327.768 259.356-23.768-35.356-48 154 54.333-74.667-5.129-22.333z" fill="#859cc1" data-original="#859CC1"/><path d="m288 322v-16c0-4.33-2.771-8.014-6.628-9.402l-7.917 25.402z" fill="#6e83b7" data-original="#6E83B7"/><path d="m224 322v-16c0-4.33 2.771-8.014 6.628-9.402l7.917 25.402z" fill="#6e83b7" data-original="#6E83B7"/><path d="m228 209-20 15 26.011 38.746 15.989-22.746 6-3z" fill="#edeff1" data-original="#EDEFF1"/><path d="m284 209 20 15-26.011 38.746-15.989-22.746-6-3z" fill="#edeff1" data-original="#EDEFF1"/><path d="m256 67h-60v67c0 33.137 26.863 60 60 60s60-26.863 60-60v-67z" fill="#ffd3b3" data-original="#FFD3B3"/><circle cx="234.2" cy="120.094" fill="#6e83b7" r="6" data-original="#6E83B7"/><circle cx="278.2" cy="120.094" fill="#6e83b7" r="6" data-original="#6E83B7"/><path d="m262.488 149.463h-13.939l1.457-17.487 5.979.498-.916 10.989h7.419z" fill="#fcb98b" data-original="#FCB98B"/><g fill="#6e83b7"><path d="m245.876 97.915s-18.589-7.713-34.41 5.933c0 0 18.392-4.746 30.85 1.187z" data-original="#6E83B7"/><path d="m263.926 97.915s18.589-7.713 34.41 5.933c0 0-18.392-4.746-30.85 1.187z" data-original="#6E83B7"/><path d="m303 37c0-17.673-14.327-32-32-32h-43c-23.167 0-27 19-27 19-20.938 0-21 18-21 18 0 7.298 3.338 13.758 9 19.125v31.875h7v20l10-20c8.165-5.299 11.617-12.133 13.056-17.466 7.199 1.606 14.97 2.466 22.944 2.466 32.667 0 50-11 50-11s-1.667 15.833 14 26l10 20v-20h7v-36c0-11.046-8.954-20-20-20z" data-original="#6E83B7"/></g><path d="m301 449h-90c-5.523 0-10-4.477-10-10v-120c0-5.523 4.477-10 10-10h90c5.523 0 10 4.477 10 10v120c0 5.523-4.477 10-10 10z" fill="#efa470" data-original="#EFA470" class="active-path" style="fill:#EFA470"/><path d="m171.308 394.472 15-5 1.526-6.612c.916-3.968 3.83-7.173 7.693-8.461l5.781-1.927v17 49l-14 4z" fill="#ffd3b3" data-original="#FFD3B3"/><path d="m250.71 404.471-.072-.677c-.363-3.42-2.656-6.16-5.678-7.275.956-1.621 1.426-3.547 1.212-5.562-.53-4.99-5.006-8.605-9.995-8.075l-37.163 4.087c-4.99.53-8.605 5.005-8.075 9.995.235 2.207 1.243 4.143 2.725 5.573-2.29 1.798-3.637 4.692-3.307 7.801l.072.677c.273 2.565 1.634 4.745 3.57 6.149-1.229 1.74-1.862 3.91-1.619 6.195.39 3.669 2.916 6.588 6.209 7.669-.404 1.201-.569 2.503-.427 3.846.53 4.99 5.005 8.605 9.995 8.075l29.592-3.282c4.99-.53 8.605-5.005 8.075-9.995-.169-1.587-.739-3.033-1.596-4.253 2.349-1.871 3.726-4.859 3.385-8.066-.167-1.566-.722-2.997-1.56-4.206 3.093-1.615 5.048-4.997 4.657-8.676z" fill="#ffd3b3" data-original="#FFD3B3"/><path d="m122.065 268.108-81.328 143.843c-15.991 28.282 8.585 62.288 40.457 55.98l110.806-21.931-14-57-57 13 40-64v-99l-3.75 1.111c-14.914 4.419-27.529 14.457-35.185 27.997z" fill="#6e83b7" data-original="#6E83B7"/><path d="m98.612 416.184 4.776 3.632c8.556-11.252 17.612-17.816 17.612-17.816l3.226-5.161c-1.512-1.124-9.757-5.839-21.226-5.839v6c5.333 0 10.242.632 13.294 2.083-4.558 2.929-11.696 9.229-17.682 17.101z" fill="#466089" data-original="#466089"/><path d="m167 391.509-6 1.368v-60.877c.406-14.331-.623-53.38-10.121-62.879l4.242-4.242c13.038 13.038 12.035 61.701 11.877 67.207z" fill="#466089" data-original="#466089"/><path d="m192 446 3.333 10.625-34.333 6.85v-11.34z" fill="#466089" data-original="#466089"/><path d="m249.764 171.365c-.904 0-1.476-.029-1.601-.036l.336-5.991c.158.009 15.858.764 21.196-7.324l5.008 3.305c-6.09 9.229-20.155 10.046-24.939 10.046z" fill="#fcb98b" data-original="#FCB98B"/><path d="m284 320h-56v-14c0-3.314 2.686-6 6-6h44c3.314 0 6 2.686 6 6z" fill="#edeff1" data-original="#EDEFF1"/><path d="m236 309h40v6h-40z" fill="#d3d3d3" data-original="#D3D3D3"/><path d="m253 449h6v58h-6z" fill="#466089" data-original="#466089"/><script xmlns=""/></g> </svg>
