<svg id="Layer_1" height="512" viewBox="0 0 512 512" width="512" xmlns="http://www.w3.org/2000/svg" data-name="Layer 1"><path d="m257.19 232.53v-32.14c0-35.39-38.16-71.8-63.61-71.8h-104.14c-25.46 0-71.91 34.39-72.92 71.8v251.8c0 12.78 13.51 27.3 26.29 27.3h192.13c12.78 0 22.25-14.52 22.25-27.3v-53.82h-.01v-165.84z" fill="#e2edfc"/><path d="m78.53 232.53h178.649v165.84h-178.649z" fill="#f4f8fc"/><path d="m495.48 350.97a38.973 38.973 0 0 1 -3.97 17.11l-20.33 41.66-70.24-34.28 20.34-41.66a39.08 39.08 0 0 1 74.2 17.17z" fill="#a0eaea"/><path d="m413.99 293.68a38.983 38.983 0 0 1 -3.97 17.12l-20.34 41.66-70.23-34.29 20.33-41.66a39.089 39.089 0 0 1 74.21 17.17z" fill="#a0eaea"/><path d="m471.18 409.74-20.34 41.66a39.079 39.079 0 1 1 -70.24-34.28l20.34-41.66z" fill="#72bcef"/><path d="m389.68 352.46-20.34 41.66a39.077 39.077 0 0 1 -70.23-34.29l20.34-41.66z" fill="#72bcef"/><path d="m222.44 305.33v25.29a2.029 2.029 0 0 1 -2.03 2.02h-34.38a2.021 2.021 0 0 0 -2.02 2.02v34.38a2.014 2.014 0 0 1 -2.02 2.02h-25.28a2.023 2.023 0 0 1 -2.03-2.02v-34.38a2.014 2.014 0 0 0 -2.02-2.02h-34.38a2.021 2.021 0 0 1 -2.02-2.02v-25.29a2.021 2.021 0 0 1 2.02-2.02h34.38a2.014 2.014 0 0 0 2.02-2.02v-34.38a2.023 2.023 0 0 1 2.03-2.02h25.28a2.014 2.014 0 0 1 2.02 2.02v34.38a2.021 2.021 0 0 0 2.02 2.02h34.38a2.029 2.029 0 0 1 2.03 2.02z" fill="#7ae280"/><path d="m241.01 51.31v58.48a18.806 18.806 0 0 1 -18.81 18.8h-14.56v-96.08h14.56a18.806 18.806 0 0 1 18.81 18.8z" fill="#92b4dd"/><path d="m172.25 128.58v.01h-36.41v-.01-96.06-.01h36.41v.01z" fill="#92b4dd"/><path d="m65.06 32.51v.01 96.06.01h36.4v-.01-96.06-.01z" fill="#92b4dd"/><path d="m172.25 32.51v.01 96.06.01h35.39v-.01-96.06-.01z" fill="#a8c8fb"/><path d="m135.84 128.58v.01h-34.38v-.01-96.06-.01h34.38v.01z" fill="#a8c8fb"/><path d="m65.06 128.58v.01h-13.56a18.8 18.8 0 0 1 -18.8-18.8v-58.48a18.8 18.8 0 0 1 18.8-18.8h13.56z" fill="#a8c8fb"/><path d="m46.52 452.19v-251.8c1.01-37.41 47.46-71.8 72.92-71.8h-30c-25.46 0-71.91 34.39-72.92 71.8v251.8c0 12.78 13.51 27.3 26.29 27.3h30c-12.78 0-26.29-14.52-26.29-27.3z" fill="#c6d4e5"/><path d="m483.132 322.445a39.056 39.056 0 0 0 -61.852 11.355l-20.34 41.66 20.094 9.807 20.246-41.467a39.082 39.082 0 0 1 41.852-21.355z" fill="#7fc6c2"/><path d="m401.638 265.165a39.072 39.072 0 0 0 -61.858 11.345l-20.33 41.66 20.093 9.81 20.237-41.47a39.094 39.094 0 0 1 41.858-21.345z" fill="#7fc6c2"/><path d="m400.6 427.12 20.34-41.66-20-10-20.34 41.66a39.079 39.079 0 0 0 28.359 55.63 39.087 39.087 0 0 1 -8.359-45.63z" fill="#52a6cc"/><path d="m319.11 369.83 20.34-41.66-20-10-20.34 41.66a39.069 39.069 0 0 0 28.353 55.63 39.09 39.09 0 0 1 -8.353-45.63z" fill="#52a6cc"/><path d="m78.53 232.53h30v165.84h-30z" fill="#d9dee2"/><g fill="#344d6b"><path d="m415.41 313.431a45.078 45.078 0 1 0 -81.018-39.552l-40.674 83.321a45.078 45.078 0 0 0 20.733 60.285 45.09 45.09 0 0 0 60.285-20.735zm-70.235-34.287a33.079 33.079 0 1 1 59.452 29.023l-17.7 36.268-59.457-29.023zm18.778 112.342a33.118 33.118 0 0 1 -44.238 15.214 33.079 33.079 0 0 1 -15.215-44.237l17.706-36.263 59.452 29.023z"/><path d="m366.674 267.7a33.418 33.418 0 0 0 -19.29 17.053l-7.457 15.276a6 6 0 1 0 10.783 5.271l7.457-15.275a21.5 21.5 0 0 1 12.409-10.971 6 6 0 1 0 -3.9-11.347z"/><path d="m476.171 310.43a45.079 45.079 0 0 0 -60.285 20.735l-40.675 83.319a45.079 45.079 0 0 0 81.019 39.552l40.674-83.32a45.079 45.079 0 0 0 -20.733-60.286zm-30.724 138.341a33.079 33.079 0 0 1 -59.453-29.023l17.7-36.268 59.458 29.02zm40.674-83.319-17.7 36.268-59.457-29.02 17.7-36.268a33.079 33.079 0 1 1 59.452 29.023z"/><path d="m448.168 324.986a33.413 33.413 0 0 0 -19.29 17.055l-7.457 15.274a6 6 0 1 0 10.779 5.265l7.458-15.276a21.493 21.493 0 0 1 12.408-10.97 6 6 0 1 0 -3.9-11.348z"/><path d="m224.918 134.443a24.84 24.84 0 0 0 22.092-24.655v-58.473a24.834 24.834 0 0 0 -24.81-24.806h-170.7a24.834 24.834 0 0 0 -24.8 24.806v58.473a24.834 24.834 0 0 0 24.8 24.806h3.529a113 113 0 0 0 -15.209 11.385c-18.127 16.123-28.807 35.9-29.3 54.25v.162 251.8c0 16.5 16.3 33.3 32.292 33.3h192.13c7.854 0 15.2-3.99 20.7-11.234a37.317 37.317 0 0 0 7.55-22.069v-251.8c-.003-25.578-17.792-51.422-38.274-65.945zm-11.278-95.934h8.56a12.82 12.82 0 0 1 12.81 12.806v58.473a12.82 12.82 0 0 1 -12.81 12.806h-8.56zm-35.394 0h23.394v84.085h-23.394zm-36.4 0h24.4v84.085h-24.4zm-34.382 0h22.382v84.085h-22.386zm-36.4 0h24.4v84.085h-24.4zm-19.564 84.085a12.82 12.82 0 0 1 -12.8-12.806v-58.473a12.82 12.82 0 0 1 12.8-12.806h7.554v84.085zm199.689 269.774h-166.661v-153.842h166.661zm0-165.842h-172.661a6 6 0 0 0 -6 6v165.842a6 6 0 0 0 6 6h172.661v47.82c0 9.648-7.247 21.3-16.247 21.3h-192.133c-9.293 0-20.292-11.548-20.292-21.3v-251.712c.436-15.035 9.646-31.625 25.28-45.531 13.685-12.173 30.419-20.351 41.64-20.351h104.14c21.159 0 57.612 32.513 57.612 65.8z"/><path d="m118.28 338.638h30.405v30.4a8.03 8.03 0 0 0 8.022 8.022h25.281a8.031 8.031 0 0 0 8.023-8.022v-30.4h30.4a8.032 8.032 0 0 0 8.023-8.023v-25.281a8.032 8.032 0 0 0 -8.023-8.022h-30.4v-30.4a8.032 8.032 0 0 0 -8.023-8.023h-25.281a8.031 8.031 0 0 0 -8.022 8.023v30.4h-30.4a8.031 8.031 0 0 0 -8.022 8.022v25.281a8.031 8.031 0 0 0 8.017 8.023zm3.978-29.326h30.4a8.032 8.032 0 0 0 8.023-8.022v-30.405h17.326v30.405a8.031 8.031 0 0 0 8.022 8.022h30.405v17.326h-30.4a8.03 8.03 0 0 0 -8.022 8.022v30.4h-17.327v-30.4a8.031 8.031 0 0 0 -8.023-8.022h-30.4z"/><path d="m46.605 250.063a6 6 0 0 0 -6 6v144.348a6 6 0 0 0 12 0v-144.348a6 6 0 0 0 -6-6z"/><path d="m46 242.252a6 6 0 0 0 6-6v-4.289a6 6 0 1 0 -12 0v4.289a6 6 0 0 0 6 6z"/></g></svg>