<?xml version="1.0"?>
<svg xmlns="http://www.w3.org/2000/svg" xmlns:xlink="http://www.w3.org/1999/xlink" version="1.1" id="Capa_1" x="0px" y="0px" viewBox="0 0 480.02 480.02" style="enable-background:new 0 0 480.02 480.02;" xml:space="preserve" width="512px" height="512px"><g><path style="fill:#FCF05A;" d="M200.01,88h144v112h-144V88z" data-original="#FCF05A"/><g>
	<path style="fill:#FDBD40;" d="M184.01,200h224v192h-224V200z" data-original="#FDBD40"/>
	<path style="fill:#FDBD40;" d="M248.01,88h48v48h-48V88z" data-original="#FDBD40"/>
</g><g>
	<path style="fill:#7D8D9C;" d="M104.01,8h32v376h-32V8z" data-original="#7D8D9C"/>
	<path style="fill:#7D8D9C;" d="M160.01,392h272v32h-272V392z" data-original="#7D8D9C"/>
</g><g>
	<path style="fill:#AABECE;" d="M432.01,392l40,56v24h-32l-40-48h32V392z" data-original="#AABECE"/>
	<path style="fill:#AABECE;" d="M32.01,24h72l0,0v48l0,0h-72c-13.255,0-24-10.745-24-24S18.755,24,32.01,24z" data-original="#AABECE"/>
</g><path style="fill:#E9686A;" d="M264.01,200h64v112h-64V200z" data-original="#E9686A"/><circle style="fill:#AABECE;" cx="120.01" cy="408" r="64" data-original="#AABECE"/><circle style="fill:#7D8D9C;" cx="120.01" cy="408" r="24" data-original="#7D8D9C"/><path d="M120.01,376c-17.673,0-32,14.327-32,32s14.327,32,32,32s32-14.327,32-32S137.683,376,120.01,376z M120.01,424  c-8.837,0-16-7.163-16-16s7.163-16,16-16s16,7.163,16,16S128.847,424,120.01,424z" data-original="#000000" class="active-path" style="fill:#000000"/><path d="M438.514,387.352c-0.166-0.188-0.342-0.367-0.528-0.536c-0.247-0.286-0.514-0.553-0.8-0.8  c-0.466-0.398-0.976-0.742-1.52-1.024c-0.277-0.17-0.566-0.32-0.864-0.448c-0.887-0.351-1.83-0.541-2.784-0.56H416.01V200  c0-4.418-3.582-8-8-8h-56V88c0-4.418-3.582-8-8-8h-144c-4.418,0-8,3.582-8,8v104h-8c-4.418,0-8,3.582-8,8v162.84  c-8.375-10.353-19.45-18.189-32-22.64V8c0-4.418-3.582-8-8-8h-32c-4.418,0-8,3.582-8,8v8h-64c-17.673,0-32,14.327-32,32  s14.327,32,32,32h64v260.2c-37.472,13.228-57.125,54.328-43.897,91.8s54.328,57.125,91.8,43.897  c20.517-7.243,36.654-23.38,43.897-43.897h208.448l37.6,45.128c1.523,1.823,3.777,2.875,6.152,2.872h32c4.418,0,8-3.582,8-8v-24  c0.001-1.668-0.522-3.294-1.496-4.648L438.514,387.352z M288.01,96v32h-32V96H288.01z M208.01,96h32v40c0,4.418,3.582,8,8,8h48  c4.418,0,8-3.582,8-8V96h32v96h-128V96z M272.01,208h48v96h-48V208z M192.01,208h64v104c0,4.418,3.582,8,8,8h64c4.418,0,8-3.582,8-8  V208h64v176h-208V208z M32.01,64c-8.837,0-16-7.163-16-16s7.163-16,16-16h64v32H32.01z M112.01,16h16v320.472  c-5.315-0.63-10.685-0.63-16,0V16z M120.01,464c-30.928,0-56-25.072-56-56s25.072-56,56-56s56,25.072,56,56  C175.97,438.911,150.922,463.96,120.01,464z M191.538,400H424.01v16H191.538C192.168,410.685,192.168,405.315,191.538,400z   M464.01,464h-20.248l-26.672-32h14.92c4.418,0,8-3.582,8-8v-7.04l24,33.6L464.01,464z" data-original="#000000" class="active-path" style="fill:#000000"/><script xmlns=""/></g> </svg>
