<?xml version="1.0"?>
<svg xmlns="http://www.w3.org/2000/svg" id="bold" enable-background="new 0 0 24 24" height="512px" viewBox="0 0 24 24" width="512px" class=""><g><path d="m16.68 3.03-8-3c-.12-.04-.24-.04-.36 0l-8 3c-.19.07-.32.26-.32.47v6.43c0 9.12 8.31 11.04 8.39 11.06.04.01.07.01.11.01s.07 0 .11-.01 1.79-.41 3.69-1.73c.14-.27.32-.52.54-.74-.66-.9-.8-2.14-.23-3.19.92-1.71 2.46-2.96 4.26-3.5.08-.59.13-1.23.13-1.9v-6.43c0-.21-.13-.4-.32-.47z" data-original="#000000" class="active-path" data-old_color="#000000" fill="#1976D2"/><path d="m23.226 19.88c-.486-.262-1.092-.082-1.355.403-.574 1.059-1.674 1.717-2.871 1.717-.611 0-1.19-.185-1.696-.494l.476-.476c.214-.214.279-.537.163-.817s-.39-.463-.693-.463h-2.5c-.414 0-.75.336-.75.75v2.5c0 .303.183.577.463.693.093.039.19.057.287.057.195 0 .387-.076.53-.22l.573-.573c.899.671 1.998 1.043 3.147 1.043 1.932 0 3.706-1.059 4.629-2.764.263-.486.083-1.092-.403-1.356z" data-original="#000000" class="active-path" data-old_color="#000000" fill="#1976D2"/><path d="m23.537 13.807c-.28-.116-.603-.052-.817.163l-.573.573c-.899-.671-1.998-1.043-3.147-1.043-1.936 0-3.71 1.064-4.631 2.776-.261.487-.079 1.093.407 1.354.151.081.313.119.473.119.356 0 .701-.191.882-.526.571-1.063 1.671-1.723 2.869-1.723.611 0 1.19.185 1.696.494l-.476.476c-.214.214-.279.537-.163.817s.39.463.693.463h2.5c.414 0 .75-.336.75-.75v-2.5c0-.303-.183-.577-.463-.693z" data-original="#000000" class="active-path" data-old_color="#000000" fill="#1976D2"/><script xmlns=""/></g> </svg>
