<svg viewBox="0 0 64 64" xmlns="http://www.w3.org/2000/svg"><path d="m4 25 22-21h12l-22 21z" fill="#99a2b9"/><path d="m16 25.5h-12a.5.5 0 0 1 -.345-.861l22-21a.5.5 0 0 1 .345-.139h12a.5.5 0 0 1 .346.861l-22 21a.5.5 0 0 1 -.346.139zm-10.752-1h10.552l20.952-20h-10.552z" fill="#212a41"/><path d="m8.992 23.5a.5.5 0 0 1 -.346-.861l17.81-17a.5.5 0 1 1 .69.722l-17.809 17a.5.5 0 0 1 -.345.139z" fill="#b7c0d7"/><path d="m4 25h44a0 0 0 0 1 0 0v34a1 1 0 0 1 -1 1h-42a1 1 0 0 1 -1-1v-34a0 0 0 0 1 0 0z" fill="#99a2b9"/><path d="m47 60.5h-42a1.5 1.5 0 0 1 -1.5-1.5v-34a.5.5 0 0 1 .5-.5h44a.5.5 0 0 1 .5.5v34a1.5 1.5 0 0 1 -1.5 1.5zm-42.5-35v33.5a.5.5 0 0 0 .5.5h42a.5.5 0 0 0 .5-.5v-33.5z" fill="#212a41"/><path d="m16 25h44a0 0 0 0 1 0 0v34a1 1 0 0 1 -1 1h-42a1 1 0 0 1 -1-1v-34a0 0 0 0 1 0 0z" fill="#b7c0d7"/><path d="m59 60.5h-42a1.5 1.5 0 0 1 -1.5-1.5v-34a.5.5 0 0 1 .5-.5h44a.5.5 0 0 1 .5.5v34a1.5 1.5 0 0 1 -1.5 1.5zm-42.5-35v33.5a.5.5 0 0 0 .5.5h42a.5.5 0 0 0 .5-.5v-33.5z" fill="#212a41"/><path d="m22 31h32v29h-32z" fill="#0079a8"/><path d="m54 60.5h-32a.5.5 0 0 1 -.5-.5v-29a.5.5 0 0 1 .5-.5h32a.5.5 0 0 1 .5.5v29a.5.5 0 0 1 -.5.5zm-31.5-1h31v-28h-31z" fill="#212a41"/><path d="m18 58.5a.5.5 0 0 1 -.5-.5v-31a.5.5 0 0 1 1 0v31a.5.5 0 0 1 -.5.5z" fill="#d5def5"/><path d="m58 58.5a.5.5 0 0 1 -.5-.5v-31a.5.5 0 0 1 1 0v31a.5.5 0 0 1 -.5.5z" fill="#99a2b9"/><path d="m6 58.5a.5.5 0 0 1 -.5-.5v-31a.5.5 0 0 1 1 0v31a.5.5 0 0 1 -.5.5z" fill="#b7c0d7"/><path d="m14 58.5a.5.5 0 0 1 -.5-.5v-31a.5.5 0 0 1 1 0v31a.5.5 0 0 1 -.5.5z" fill="#7b849b"/><path d="m16 25 22-21 22 21z" fill="#b7c0d7"/><path d="m60 25.5h-44a.5.5 0 0 1 -.345-.861l22-21a.5.5 0 0 1 .692 0l22 21a.5.5 0 0 1 -.347.861zm-42.752-1h41.5l-20.748-19.809z" fill="#212a41"/><path d="m55.008 23.5a.5.5 0 0 1 -.346-.139l-17.008-16.235a.5.5 0 0 1 .692-.723l17.008 16.236a.5.5 0 0 1 -.346.861z" fill="#99a2b9"/><path d="m36 50h10v10h-10z" fill="#db8e11"/><path d="m46 60.5h-10a.5.5 0 0 1 -.5-.5v-10a.5.5 0 0 1 .5-.5h10a.5.5 0 0 1 .5.5v10a.5.5 0 0 1 -.5.5zm-9.5-1h9v-9h-9z" fill="#212a41"/><path d="m40 50h10v10h-10z" fill="#f9ac2f"/><path d="m50 60.5h-10a.5.5 0 0 1 -.5-.5v-10a.5.5 0 0 1 .5-.5h10a.5.5 0 0 1 .5.5v10a.5.5 0 0 1 -.5.5zm-9.5-1h9v-9h-9z" fill="#212a41"/><path d="m50 53.5h-14a.5.5 0 0 1 0-1h14a.5.5 0 0 1 0 1z" fill="#212a41"/><path d="m26 50h10v10h-10z" fill="#db8e11"/><path d="m36 60.5h-10a.5.5 0 0 1 -.5-.5v-10a.5.5 0 0 1 .5-.5h10a.5.5 0 0 1 .5.5v10a.5.5 0 0 1 -.5.5zm-9.5-1h9v-9h-9z" fill="#212a41"/><path d="m30 50h10v10h-10z" fill="#f9ac2f"/><path d="m40 60.5h-10a.5.5 0 0 1 -.5-.5v-10a.5.5 0 0 1 .5-.5h10a.5.5 0 0 1 .5.5v10a.5.5 0 0 1 -.5.5zm-9.5-1h9v-9h-9z" fill="#212a41"/><path d="m40 53.5h-14a.5.5 0 0 1 0-1h14a.5.5 0 0 1 0 1z" fill="#212a41"/><path d="m26 40h10v10h-10z" fill="#db8e11"/><path d="m36 50.5h-10a.5.5 0 0 1 -.5-.5v-10a.5.5 0 0 1 .5-.5h10a.5.5 0 0 1 .5.5v10a.5.5 0 0 1 -.5.5zm-9.5-1h9v-9h-9z" fill="#212a41"/><path d="m30 40h10v10h-10z" fill="#f9ac2f"/><path d="m40 50.5h-10a.5.5 0 0 1 -.5-.5v-10a.5.5 0 0 1 .5-.5h10a.5.5 0 0 1 .5.5v10a.5.5 0 0 1 -.5.5zm-9.5-1h9v-9h-9z" fill="#212a41"/><path d="m40 43.5h-14a.5.5 0 0 1 0-1h14a.5.5 0 0 1 0 1z" fill="#212a41"/><path d="m32 19h12v6h-12z" fill="#e0e0e0"/><path d="m44 25.5h-12a.5.5 0 0 1 -.5-.5v-6a.5.5 0 0 1 .5-.5h12a.5.5 0 0 1 .5.5v6a.5.5 0 0 1 -.5.5zm-11.5-1h11v-5h-11z" fill="#212a41"/></svg>